<svg width="40" height="43" viewBox="0 0 40 43" fill="none" xmlns="http://www.w3.org/2000/svg">
<path d="M19.6779 0.0583496L39.1016 10.6795V31.9266L19.6779 42.5477L0.254181 31.9266V10.6795L19.6779 0.0583496Z" fill="white"/>
<path d="M35.6335 31.194L20.3204 39.5686V33.0474L29.8616 27.9722L35.6335 31.194ZM36.6824 30.2769V12.7659L31.0812 15.8954V27.1522L36.6824 30.2769ZM3.66214 31.194L18.9753 39.5686V33.0474L9.42903 27.9722L3.66214 31.194ZM2.61316 30.2769V12.7659L8.21442 15.8954V27.1522L2.61316 30.2769ZM3.27065 11.6305L18.9753 3.04236V9.34517L8.91206 14.697L8.83176 14.7407L3.27065 11.6305ZM36.025 11.6305L20.3204 3.04236V9.34517L30.3835 14.6921L30.4639 14.7358L36.025 11.6305Z" fill="#8ED6FB"/>
<path d="M18.9752 31.5627L9.55948 26.5554V16.6427L18.9752 21.8974V31.5627ZM20.3203 31.5627L29.7361 26.5603V16.6427L20.3203 21.8974V31.5627ZM10.1969 15.4976L19.6478 10.4757L29.0986 15.4976L19.6478 20.7718L10.1969 15.4976Z" fill="#1C78C0"/>
</svg>
